<svg width="24" height="25" viewBox="0 0 24 25" fill="none" xmlns="http://www.w3.org/2000/svg">
<g clip-path="url(#clip0_1_171)">
<path d="M23.953 3.02711C23.9336 2.93849 23.8911 2.85658 23.8298 2.78968C23.7685 2.72277 23.6906 2.67325 23.604 2.64611C23.2887 2.58366 22.9624 2.6068 22.659 2.71311C22.659 2.71311 1.63003 10.2721 0.429029 11.1091C0.171029 11.2891 0.0840289 11.3941 0.0410289 11.5171C-0.166971 12.1171 0.480029 12.3751 0.480029 12.3751L5.90003 14.1411C5.99167 14.1576 6.08591 14.1521 6.17503 14.1251C7.40703 13.3461 18.575 6.29111 19.224 6.05411C19.324 6.02411 19.401 6.05411 19.381 6.12911C19.123 7.03411 9.47203 15.6071 9.41903 15.6591C9.39321 15.6803 9.3731 15.7075 9.36052 15.7385C9.34795 15.7694 9.34331 15.8029 9.34703 15.8361L8.84103 21.1281C8.84103 21.1281 8.62903 22.7751 10.276 21.1281C11.444 19.9591 12.565 18.9911 13.125 18.5201C14.989 19.8071 16.994 21.2301 17.859 21.9751C18.0045 22.1159 18.1769 22.226 18.3659 22.2987C18.5549 22.3714 18.7567 22.4052 18.959 22.3981C19.2082 22.3677 19.4423 22.2622 19.63 22.0955C19.8178 21.9289 19.9503 21.709 20.01 21.4651C20.01 21.4651 23.84 6.04211 23.968 3.97611C23.981 3.77611 23.998 3.64411 24 3.50511C24.0063 3.34438 23.9904 3.18355 23.953 3.02711Z" fill="#9CA3AF"/>
</g>
<defs>
<clipPath id="clip0_1_171">
<rect width="24" height="24" fill="white" transform="translate(0 0.5)"/>
</clipPath>
</defs>
</svg>
