<svg width="24" height="25" viewBox="0 0 24 25" fill="none" xmlns="http://www.w3.org/2000/svg">
<path d="M14.76 3.5C19.8 3.5 21 4.7 21 9.74V15.26C21 20.3 19.8 21.5 14.76 21.5H9.24C4.2 21.5 3 20.3 3 15.26V9.74C3 4.7 4.2 3.5 9.24 3.5H14.76Z" fill="#9CA3AF"/>
<path d="M7.68755 9.125H6.37505C6.00005 9.125 5.92505 9.30153 5.92505 9.49619C5.92505 9.84383 6.37002 11.5681 7.99689 13.8485C9.08146 15.4058 10.6096 16.25 12.0001 16.25C12.8343 16.25 12.9376 16.0625 12.9376 15.7395V14.5625C12.9376 14.1875 13.0166 14.1127 13.2808 14.1127C13.4754 14.1127 13.8092 14.21 14.5879 14.9609C15.4778 15.8508 15.6245 16.25 16.1251 16.25H17.4376C17.8126 16.25 18.0001 16.0625 17.8919 15.6925C17.7735 15.3237 17.3486 14.7886 16.7849 14.1544C16.4789 13.7928 16.0201 13.4035 15.881 13.2088C15.6863 12.9586 15.742 12.8473 15.881 12.6248L15.9044 12.5917C16.1021 12.3106 17.492 10.3176 17.647 9.60746C17.7304 9.32935 17.647 9.125 17.2501 9.125H15.9376C15.6038 9.125 15.45 9.30153 15.3665 9.49619C15.3665 9.49619 14.6991 11.1231 13.7535 12.1799C13.4476 12.4858 13.3086 12.5831 13.1417 12.5831C13.0583 12.5831 12.9375 12.4858 12.9375 12.2077V9.60746C12.9375 9.27373 12.8407 9.125 12.5626 9.125H10.5001C10.2915 9.125 10.1661 9.27989 10.1661 9.42668C10.1661 9.74305 10.6388 9.81601 10.6876 10.7059V12.6387C10.6876 13.0625 10.611 13.1393 10.4442 13.1393C9.99922 13.1393 8.91689 11.5052 8.27497 9.63526C8.14917 9.27181 8.02299 9.125 7.68755 9.125Z" fill="white"/>
</svg>
